<?xml version="1.0" encoding="UTF-8" standalone="no"?><!DOCTYPE svg PUBLIC "-//W3C//DTD SVG 1.1//EN" "http://www.w3.org/Graphics/SVG/1.1/DTD/svg11.dtd"><svg width="100%" height="100%" viewBox="0 0 348 384" version="1.1" xmlns="http://www.w3.org/2000/svg" xmlns:xlink="http://www.w3.org/1999/xlink" xml:space="preserve" xmlns:serif="http://www.serif.com/" style="fill-rule:evenodd;clip-rule:evenodd;stroke-linecap:round;stroke-linejoin:round;"><path d="M329.854,260.371l0,-138.888c-0.012,-12.391 -6.629,-23.837 -17.362,-30.033l-121.529,-69.446c-10.742,-6.2 -23.98,-6.2 -34.721,0l-121.529,69.446c-10.73,6.196 -17.346,17.642 -17.359,30.033l0,138.888c0.013,12.396 6.629,23.841 17.359,30.037l121.529,69.442c10.741,6.204 23.979,6.204 34.721,-0l121.529,-69.442c10.733,-6.196 17.35,-17.641 17.362,-30.037Z" style="fill:none;stroke:#ff4600;stroke-width:34.71px;"/><path d="M95.479,55.683l78.125,45.142l78.125,-45.142" style="fill:none;stroke:#ff4600;stroke-width:34.71px;"/><path d="M95.479,326.171l0,-90.104l-78.125,-45.138" style="fill:none;stroke:#ff4600;stroke-width:34.71px;"/><path d="M329.854,190.929l-78.125,45.138l0,90.104" style="fill:none;stroke:#ff4600;stroke-width:34.71px;"/><path d="M22.042,103.429l151.562,87.671l151.563,-87.671" style="fill:none;stroke:#ff4600;stroke-width:34.71px;"/><path d="M173.604,365.929l0,-175" style="fill:none;stroke:#ff4600;stroke-width:34.71px;"/></svg>