<?xml version="1.0" encoding="UTF-8" standalone="no"?><!DOCTYPE svg PUBLIC "-//W3C//DTD SVG 1.1//EN" "http://www.w3.org/Graphics/SVG/1.1/DTD/svg11.dtd"><svg width="100%" height="100%" viewBox="0 0 2371 584" version="1.1" xmlns="http://www.w3.org/2000/svg" xmlns:xlink="http://www.w3.org/1999/xlink" xml:space="preserve" xmlns:serif="http://www.serif.com/" style="fill-rule:evenodd;clip-rule:evenodd;stroke-linecap:round;stroke-linejoin:round;"><g><path d="M329.863,260.379l-0,-138.887c-0.013,-12.392 -6.63,-23.838 -17.363,-30.034l-121.529,-69.446c-10.742,-6.2 -23.979,-6.2 -34.721,0l-121.529,69.446c-10.729,6.196 -17.346,17.642 -17.359,30.034l0,138.887c0.013,12.396 6.63,23.842 17.359,30.038l121.529,69.441c10.742,6.204 23.979,6.204 34.721,0l121.529,-69.441c10.733,-6.196 17.35,-17.642 17.363,-30.038Z" style="fill:none;stroke:#ff4600;stroke-width:34.71px;"/><path d="M95.488,55.692l78.125,45.141l78.125,-45.141" style="fill:none;stroke:#ff4600;stroke-width:34.71px;"/><path d="M95.488,326.179l-0,-90.104l-78.125,-45.138" style="fill:none;stroke:#ff4600;stroke-width:34.71px;"/><path d="M329.863,190.938l-78.125,45.137l-0,90.104" style="fill:none;stroke:#ff4600;stroke-width:34.71px;"/><path d="M22.05,103.438l151.563,87.67l151.562,-87.671" style="fill:none;stroke:#ff4600;stroke-width:34.71px;"/><path d="M173.613,365.938l-0,-175" style="fill:none;stroke:#ff4600;stroke-width:34.71px;"/></g><path d="M627.72,187.904l87.031,2.253c-5.734,45.051 -21.331,79.863 -46.792,104.437c-25.461,24.573 -58.669,36.86 -99.625,36.86c-41.638,0 -76.485,-13.959 -104.54,-41.877c-28.054,-27.918 -42.082,-62.56 -42.082,-103.926c0,-41.638 14.301,-76.655 42.901,-105.051c28.601,-28.396 63.857,-42.594 105.769,-42.594c41.229,-0 75.632,13.925 103.208,41.775c19.113,19.249 32.629,46.075 40.547,80.478l-89.079,5.938c-9.966,-30.58 -28.874,-45.87 -56.724,-45.87c-17.747,-0 -32.389,6.143 -43.925,18.43c-11.536,12.287 -17.304,27.918 -17.304,46.894c0,18.294 5.666,33.414 16.997,45.359c11.331,11.945 25.665,17.918 43.003,17.918c17.611,0 31.639,-5.256 42.082,-15.768c10.444,-10.512 16.622,-25.597 18.533,-45.256Z" style="fill-rule:nonzero;"/><path d="M824.922,44.968l0,85.393c12.97,-9.42 25.939,-14.13 38.908,-14.13c19.659,0 35.256,7.099 46.792,21.297c11.536,14.198 17.304,33.379 17.304,57.543l0,129.421l-76.587,-0l-0,-107.919c-0,-8.737 -0.922,-14.607 -2.765,-17.611c-1.843,-3.003 -5.426,-4.505 -10.751,-4.505c-8.6,-0 -12.901,6.348 -12.901,19.044l0,110.991l-76.587,-0l-0,-279.524l76.587,0Z" style="fill-rule:nonzero;"/><path d="M1086.02,247.904l0,79.25c-6.279,1.092 -12.013,1.638 -17.201,1.638c-30.717,0 -56.314,-10.102 -76.792,-30.307c-20.478,-20.205 -30.717,-45.529 -30.717,-75.973c0,-29.625 10.341,-54.745 31.024,-75.359c20.683,-20.614 45.836,-30.922 75.461,-30.922c33.038,0 59.079,9.659 78.123,28.977c19.045,19.317 28.567,45.699 28.567,79.147l0,100.137l-76.587,-0l-0,-94.608c-0,-10.785 -2.628,-19.386 -7.884,-25.802c-5.256,-6.417 -12.321,-9.625 -21.195,-9.625c-8.055,-0 -15.017,2.935 -20.887,8.805c-5.871,5.871 -8.806,12.833 -8.806,20.888c0,8.464 2.662,15.427 7.986,20.887c5.325,5.461 12.082,8.192 20.274,8.192c6.689,-0 12.901,-1.775 18.634,-5.325Z" style="fill-rule:nonzero;"/><path d="M1287.31,44.968l0,78.226l34.403,-0l0,80.888l-34.403,-0c0,16.245 2.56,27.44 7.68,33.583c5.119,6.144 14.505,9.215 28.157,9.215l-0,80.479c-3.959,0.136 -6.895,0.204 -8.806,0.204c-17.338,0 -33.686,-4.027 -49.044,-12.082c-15.359,-8.054 -27.68,-18.976 -36.963,-32.764c-11.741,-17.611 -17.611,-40.956 -17.611,-70.035l-0,-167.714l76.587,0Z" style="fill-rule:nonzero;"/><path d="M1448.27,120.122l-0,204.37l-83.141,-0l0,-279.524l106.69,0c32.492,0 57.68,8.055 75.564,24.164c19.932,18.021 29.897,40.888 29.897,68.601c0,28.26 -12.355,52.082 -37.065,71.468l47.919,115.291l-87.236,-0l-40.342,-90.103l0,-71.878l6.553,0c17.475,0 26.212,-7.508 26.212,-22.525c0,-13.243 -10.102,-19.864 -30.307,-19.864l-14.744,0Z" style="fill-rule:nonzero;"/><path d="M1707.11,116.027c28.942,-0 53.755,10.409 74.438,31.228c20.682,20.82 31.024,45.769 31.024,74.847c-0,29.488 -10.478,54.608 -31.434,75.359c-20.956,20.751 -46.246,31.126 -75.871,31.126c-29.624,0 -54.949,-10.409 -75.973,-31.229c-21.024,-20.819 -31.536,-45.904 -31.536,-75.256c0,-29.898 10.512,-55.051 31.536,-75.461c21.024,-20.41 46.963,-30.614 77.816,-30.614Zm-2.047,75.563c-8.192,0 -15.154,2.969 -20.888,8.908c-5.734,5.939 -8.601,13.208 -8.601,21.809c0,8.464 2.901,15.7 8.703,21.706c5.803,6.007 12.731,9.011 20.786,9.011c8.191,-0 15.187,-3.004 20.989,-9.011c5.802,-6.006 8.704,-13.242 8.704,-21.706c-0,-8.601 -2.867,-15.87 -8.601,-21.809c-5.734,-5.939 -12.765,-8.908 -21.092,-8.908Z" style="fill-rule:nonzero;"/><path d="M1941.38,116.027c28.942,-0 53.754,10.409 74.437,31.228c20.682,20.82 31.024,45.769 31.024,74.847c-0,29.488 -10.478,54.608 -31.434,75.359c-20.956,20.751 -46.246,31.126 -75.87,31.126c-29.625,0 -54.949,-10.409 -75.973,-31.229c-21.024,-20.819 -31.536,-45.904 -31.536,-75.256c-0,-29.898 10.512,-55.051 31.536,-75.461c21.024,-20.41 46.962,-30.614 77.816,-30.614Zm-2.048,75.563c-8.191,0 -15.154,2.969 -20.888,8.908c-5.733,5.939 -8.6,13.208 -8.6,21.809c-0,8.464 2.901,15.7 8.703,21.706c5.802,6.007 12.73,9.011 20.785,9.011c8.191,-0 15.188,-3.004 20.99,-9.011c5.802,-6.006 8.703,-13.242 8.703,-21.706c-0,-8.601 -2.867,-15.87 -8.601,-21.809c-5.734,-5.939 -12.765,-8.908 -21.092,-8.908Z" style="fill-rule:nonzero;"/><path d="M2358.92,324.492l-76.587,-0l-0,-110.171c-0,-8.465 -0.888,-14.335 -2.662,-17.611c-1.775,-3.277 -4.983,-4.915 -9.625,-4.915c-8.601,-0 -12.901,7.577 -12.901,22.73l-0,109.967l-76.587,-0l-0,-110.171c-0,-8.465 -0.922,-14.335 -2.765,-17.611c-1.843,-3.277 -5.085,-4.915 -9.727,-4.915c-8.464,-0 -12.696,7.577 -12.696,22.73l-0,109.967l-76.588,-0l0,-125.735c0,-22.935 7.714,-42.423 23.14,-58.464c15.427,-16.041 34.13,-24.062 56.11,-24.062c22.662,0 43.003,9.557 61.024,28.669c20.068,-19.112 40.137,-28.669 60.205,-28.669c25.529,0 46.007,9.284 61.434,27.85c12.15,14.471 18.225,35.564 18.225,63.277l0,117.134Z" style="fill-rule:nonzero;"/><path d="M1411.83,537.908l-16.988,0l-0,-149.129l18.31,0l0,53.202c7.731,-9.697 17.599,-14.546 29.602,-14.546c6.646,-0 12.936,1.339 18.87,4.018c5.934,2.679 10.817,6.442 14.649,11.291c3.831,4.849 6.832,10.698 9.002,17.548c2.171,6.849 3.256,14.174 3.256,21.973c-0,18.514 -4.578,32.823 -13.733,42.928c-9.156,10.104 -20.142,15.157 -32.959,15.157c-12.75,-0 -22.753,-5.324 -30.009,-15.971l-0,13.529Zm-0.204,-54.83c0,12.953 1.764,22.312 5.29,28.077c5.764,9.426 13.563,14.139 23.397,14.139c8.002,0 14.92,-3.475 20.752,-10.426c5.832,-6.952 8.748,-17.311 8.748,-31.078c0,-14.105 -2.797,-24.515 -8.392,-31.229c-5.595,-6.714 -12.36,-10.071 -20.294,-10.071c-8.003,0 -14.92,3.476 -20.752,10.427c-5.833,6.951 -8.749,17.005 -8.749,30.161Z" style="fill-rule:nonzero;"/><path d="M1510,579.514l-2.035,-17.192c4.001,1.085 7.494,1.628 10.478,1.628c4.069,-0 7.324,-0.678 9.766,-2.035c2.441,-1.356 4.442,-3.255 6.001,-5.696c1.153,-1.831 3.018,-6.375 5.595,-13.631c0.339,-1.018 0.882,-2.51 1.628,-4.476l-40.995,-108.236l19.734,0l22.481,62.561c2.917,7.935 5.528,16.276 7.833,25.025c2.103,-8.41 4.612,-16.616 7.528,-24.618l23.092,-62.968l18.31,0l-41.097,109.863c-4.408,11.868 -7.833,20.04 -10.274,24.516c-3.255,6.036 -6.985,10.461 -11.19,13.275c-4.204,2.815 -9.223,4.222 -15.055,4.222c-3.527,-0 -7.46,-0.746 -11.8,-2.238Z" style="fill-rule:nonzero;"/><path d="M1675,537.908l0,-149.129l20.243,0l78.329,117.086l-0,-117.086l18.921,0l-0,149.129l-20.244,0l-78.328,-117.187l-0,117.187l-18.921,0Z" style="fill-rule:nonzero;"/><path d="M1823.41,409.836l0,-21.057l18.311,0l-0,21.057l-18.311,0Zm0,128.072l0,-108.032l18.311,0l-0,108.032l-18.311,0Z" style="fill-rule:nonzero;"/><path d="M1862.27,505.661l18.107,-2.848c1.018,7.257 3.849,12.818 8.494,16.683c4.646,3.866 11.139,5.798 19.481,5.798c8.409,0 14.648,-1.712 18.717,-5.137c4.069,-3.424 6.104,-7.443 6.104,-12.054c-0,-4.137 -1.797,-7.392 -5.392,-9.766c-2.509,-1.627 -8.748,-3.696 -18.717,-6.205c-13.428,-3.391 -22.736,-6.324 -27.924,-8.799c-5.188,-2.476 -9.121,-5.9 -11.8,-10.275c-2.679,-4.374 -4.018,-9.206 -4.018,-14.495c0,-4.815 1.102,-9.274 3.306,-13.377c2.204,-4.103 5.205,-7.511 9.003,-10.224c2.848,-2.102 6.731,-3.882 11.647,-5.34c4.917,-1.458 10.19,-2.187 15.819,-2.187c8.477,-0 15.92,1.22 22.328,3.662c6.409,2.441 11.139,5.747 14.191,9.918c3.052,4.171 5.154,9.749 6.307,16.734l-17.904,2.441c-0.814,-5.561 -3.17,-9.901 -7.07,-13.021c-3.899,-3.119 -9.409,-4.679 -16.53,-4.679c-8.409,0 -14.411,1.39 -18.005,4.171c-3.595,2.78 -5.392,6.035 -5.392,9.765c0,2.374 0.746,4.51 2.238,6.409c1.492,1.967 3.832,3.594 7.019,4.883c1.831,0.678 7.223,2.238 16.175,4.679c12.953,3.459 21.989,6.29 27.109,8.494c5.12,2.204 9.139,5.409 12.055,9.613c2.916,4.205 4.374,9.427 4.374,15.666c-0,6.104 -1.78,11.851 -5.341,17.242c-3.56,5.392 -8.697,9.563 -15.411,12.513c-6.714,2.95 -14.309,4.425 -22.786,4.425c-14.039,-0 -24.737,-2.916 -32.095,-8.749c-7.358,-5.832 -12.054,-14.479 -14.089,-25.94Z" style="fill-rule:nonzero;"/><path d="M2044.26,524.582c-6.782,5.765 -13.309,9.834 -19.582,12.207c-6.273,2.374 -13.004,3.561 -20.193,3.561c-11.868,-0 -20.989,-2.899 -27.364,-8.698c-6.375,-5.798 -9.562,-13.207 -9.562,-22.227c-0,-5.289 1.204,-10.121 3.611,-14.496c2.408,-4.374 5.561,-7.883 9.461,-10.528c3.899,-2.645 8.29,-4.646 13.173,-6.002c3.594,-0.949 9.02,-1.865 16.276,-2.747c14.784,-1.763 25.669,-3.865 32.654,-6.306c0.068,-2.51 0.102,-4.103 0.102,-4.782c-0,-7.459 -1.73,-12.715 -5.188,-15.767c-4.68,-4.137 -11.631,-6.205 -20.854,-6.205c-8.613,-0 -14.971,1.509 -19.074,4.527c-4.102,3.017 -7.137,8.358 -9.104,16.021l-17.904,-2.441c1.628,-7.663 4.307,-13.852 8.037,-18.565c3.73,-4.713 9.121,-8.341 16.174,-10.885c7.053,-2.543 15.225,-3.814 24.516,-3.814c9.223,-0 16.717,1.085 22.481,3.255c5.764,2.17 10.003,4.9 12.716,8.189c2.712,3.289 4.611,7.443 5.696,12.461c0.611,3.12 0.916,8.749 0.916,16.887l-0,24.414c-0,17.022 0.39,27.788 1.17,32.297c0.78,4.51 2.322,8.834 4.628,12.97l-19.124,0c-1.899,-3.797 -3.12,-8.239 -3.662,-13.326Zm-1.526,-40.893c-6.646,2.712 -16.615,5.018 -29.907,6.917c-7.528,1.085 -12.852,2.306 -15.971,3.662c-3.12,1.357 -5.527,3.34 -7.223,5.951c-1.695,2.611 -2.543,5.51 -2.543,8.698c0,4.882 1.848,8.951 5.544,12.207c3.696,3.255 9.105,4.882 16.225,4.882c7.053,0 13.326,-1.542 18.82,-4.628c5.493,-3.086 9.528,-7.307 12.105,-12.665c1.967,-4.137 2.95,-10.24 2.95,-18.31l-0,-6.714Z" style="fill-rule:nonzero;"/><path d="M2089.42,537.908l-0,-108.032l16.479,0l0,16.378c4.205,-7.663 8.087,-12.716 11.648,-15.157c3.56,-2.442 7.477,-3.662 11.749,-3.662c6.171,-0 12.444,1.966 18.819,5.9l-6.307,16.988c-4.476,-2.645 -8.952,-3.967 -13.427,-3.967c-4.002,-0 -7.596,1.203 -10.783,3.611c-3.188,2.407 -5.46,5.747 -6.816,10.02c-2.034,6.51 -3.052,13.631 -3.052,21.362l0,56.559l-18.31,0Z" style="fill-rule:nonzero;"/><path d="M2229.8,537.908l-0,-15.869c-8.41,12.207 -19.837,18.311 -34.282,18.311c-6.375,-0 -12.326,-1.221 -17.853,-3.662c-5.527,-2.442 -9.63,-5.51 -12.308,-9.207c-2.679,-3.696 -4.561,-8.222 -5.646,-13.58c-0.746,-3.594 -1.119,-9.291 -1.119,-17.09l-0,-66.935l18.31,0l0,59.916c0,9.562 0.373,16.005 1.119,19.328c1.153,4.815 3.595,8.596 7.325,11.342c3.73,2.747 8.341,4.12 13.834,4.12c5.493,0 10.648,-1.407 15.463,-4.221c4.815,-2.815 8.222,-6.646 10.223,-11.495c2.001,-4.849 3.001,-11.885 3.001,-21.108l-0,-57.882l18.31,0l0,108.032l-16.377,0Z" style="fill-rule:nonzero;"/><path d="M2276.39,537.908l-0,-149.129l19.734,0l0,131.531l73.446,-0l0,17.598l-93.18,0Z" style="fill-rule:nonzero;"/></svg>