<?xml version="1.0" encoding="UTF-8" standalone="no"?><!DOCTYPE svg PUBLIC "-//W3C//DTD SVG 1.1//EN" "http://www.w3.org/Graphics/SVG/1.1/DTD/svg11.dtd"><svg width="100%" height="100%" viewBox="0 0 569 140" version="1.1" xmlns="http://www.w3.org/2000/svg" xmlns:xlink="http://www.w3.org/1999/xlink" xml:space="preserve" xmlns:serif="http://www.serif.com/" style="fill-rule:evenodd;clip-rule:evenodd;stroke-linecap:round;stroke-linejoin:round;"><g><path d="M79.167,62.491l-0,-33.333c-0.003,-2.974 -1.591,-5.721 -4.167,-7.208l-29.167,-16.667c-2.578,-1.488 -5.755,-1.488 -8.333,0l-29.167,16.667c-2.575,1.487 -4.163,4.234 -4.166,7.208l-0,33.333c0.003,2.975 1.591,5.722 4.166,7.209l29.167,16.666c2.578,1.489 5.755,1.489 8.333,0l29.167,-16.666c2.576,-1.487 4.164,-4.234 4.167,-7.209Z" style="fill:none;stroke:#ff4600;stroke-width:8.33px;"/><path d="M22.917,13.366l18.75,10.834l18.75,-10.834" style="fill:none;stroke:#ff4600;stroke-width:8.33px;"/><path d="M22.917,78.283l-0,-21.625l-18.75,-10.833" style="fill:none;stroke:#ff4600;stroke-width:8.33px;"/><path d="M79.167,45.825l-18.75,10.833l-0,21.625" style="fill:none;stroke:#ff4600;stroke-width:8.33px;"/><path d="M5.292,24.825l36.375,21.041l36.375,-21.041" style="fill:none;stroke:#ff4600;stroke-width:8.33px;"/><path d="M41.667,87.825l-0,-42" style="fill:none;stroke:#ff4600;stroke-width:8.33px;"/></g><text x="98.557px" y="77.878px" style="font-family:'Bauhaus93', 'Bauhaus 93', fantasy;font-size:100.653px;">ChatRoom</text><text x="331.491px" y="129.098px" style="font-family:'ArialMT', 'Arial', sans-serif;font-size:50px;">by NisaruL</text></svg>